<?xml version="1.0" standalone="no"?>
<!DOCTYPE svg PUBLIC "-//W3C//DTD SVG 20010904//EN"
 "http://www.w3.org/TR/2001/REC-SVG-20010904/DTD/svg10.dtd">
<svg version="1.0" xmlns="http://www.w3.org/2000/svg"
width="100%" height="100%" viewBox="0 0 640.000000 1280.000000"
 preserveAspectRatio="xMidYMid meet">
<metadata>
Created by potrace 1.15, written by Peter Selinger 2001-2017
</metadata>
<g transform="translate(0.000000,1280.000000) scale(0.100000,-0.100000)"
fill="#000000" stroke="none">
<path d="M2728 12784 c-354 -85 -619 -518 -678 -1108 -16 -153 -7 -535 15
-671 126 -781 508 -1356 960 -1444 l85 -16 0 -66 c0 -41 9 -95 24 -145 14 -43
35 -112 47 -152 12 -40 20 -74 18 -76 -2 -2 -56 0 -119 4 -145 11 -735 36
-1165 50 -525 17 -789 41 -995 92 -145 35 -137 16 -71 175 160 382 255 563
521 988 86 138 183 295 215 350 32 55 65 107 72 115 7 9 33 58 58 110 53 107
91 166 151 230 39 42 44 54 77 195 50 204 87 414 87 485 0 109 -38 144 -108
97 -37 -24 -70 -61 -277 -312 -54 -66 -150 -172 -211 -236 -171 -177 -174
-220 -24 -298 94 -49 143 -89 160 -130 11 -28 8 -37 -61 -153 -39 -68 -140
-231 -222 -363 -213 -340 -278 -454 -383 -670 -109 -224 -254 -568 -254 -602
0 -27 9 -31 155 -73 277 -79 493 -100 1290 -125 658 -21 1118 -45 1133 -60 33
-33 53 -726 33 -1123 -7 -125 -28 -438 -47 -697 -56 -764 -63 -859 -75 -1100
-7 -145 -9 -308 -4 -440 8 -244 9 -211 -4 -525 -6 -135 -17 -425 -26 -645 -62
-1576 -158 -2612 -271 -2925 -13 -37 -24 -81 -24 -99 0 -44 -53 -79 -216 -143
-142 -55 -174 -75 -174 -112 0 -26 21 -47 105 -104 33 -23 76 -55 95 -71 l35
-29 -35 -6 c-19 -3 -87 -13 -150 -21 -249 -33 -856 -147 -1074 -201 -211 -52
-239 -73 -119 -88 43 -5 165 -5 295 0 123 5 224 9 226 8 2 -1 -14 -11 -34 -23
-20 -12 -35 -23 -33 -25 2 -2 74 5 159 15 671 80 1420 153 1420 138 0 -4 -12
-10 -27 -14 -71 -18 -531 -180 -620 -218 -153 -67 -192 -101 -132 -118 67 -19
661 10 973 47 44 5 57 4 52 -4 -4 -7 -20 -12 -36 -12 -44 0 -326 -59 -410 -86
-92 -30 -109 -39 -94 -54 9 -9 47 -7 150 9 77 11 193 23 259 27 66 4 172 13
235 20 l115 13 -110 -5 -110 -6 30 33 c17 18 37 40 45 49 48 48 100 120 88
121 -7 1 28 7 77 14 169 23 21 15 -270 -15 -305 -31 -406 -37 -389 -20 13 13
106 47 419 155 149 51 311 107 360 125 50 17 133 40 185 50 52 10 85 18 73 19
-12 1 -44 -3 -70 -8 -26 -5 -62 -12 -79 -15 l-31 -5 42 43 c41 42 43 43 131
52 125 13 -311 7 -541 -7 -174 -11 -530 -45 -575 -55 -22 -5 -23 -4 -10 10 9
9 78 25 175 41 194 32 333 63 341 77 4 7 -40 9 -134 6 -137 -3 -175 4 -88 17
55 9 106 39 106 63 0 41 -49 69 -310 179 -96 40 -181 81 -188 91 -16 20 -12
50 21 162 88 292 165 1013 222 2065 21 387 43 903 51 1198 4 136 10 247 14
247 4 0 15 -9 26 -21 10 -12 36 -30 57 -40 l37 -19 0 -193 c0 -105 7 -588 15
-1072 23 -1412 18 -2213 -14 -2274 -10 -18 -8 -27 14 -55 14 -18 44 -41 68
-51 23 -9 107 -48 187 -85 234 -110 378 -150 543 -150 105 0 192 22 252 63 48
33 225 195 225 206 0 4 -37 3 -82 -1 -203 -18 -484 40 -837 174 l-104 39 -26
-24 c-38 -35 -73 -57 -91 -57 -13 0 -14 19 -9 142 10 217 9 1071 -1 1648 -5
283 -12 790 -16 1125 l-7 610 31 50 c97 155 156 645 169 1390 12 743 -43 1533
-148 2115 -25 140 -56 284 -75 353 -5 15 3 17 65 17 l70 0 16 -52 c126 -440
189 -957 183 -1503 -4 -356 14 -1745 23 -1751 14 -8 -21 -91 -57 -132 l-34
-40 -6 -349 c-7 -335 -6 -349 13 -372 30 -36 54 -21 107 72 93 160 138 218
218 285 43 35 85 76 92 91 39 78 22 157 -68 321 -93 168 -112 208 -134 285
-19 65 -21 110 -28 605 -3 294 -8 738 -9 985 -4 483 -15 659 -61 945 -53 332
-134 662 -171 696 -26 24 -72 33 -183 36 l-76 1 -48 146 c-67 199 -65 194 -72
286 l-7 82 29 7 c45 11 153 79 218 138 205 183 351 531 395 940 16 140 13 443
-4 592 -56 479 -230 926 -471 1211 -216 253 -499 377 -736 319z m221 -149
c208 -49 426 -252 574 -534 l59 -112 -43 23 c-125 65 -279 14 -347 -116 -25
-46 -27 -61 -27 -162 0 -107 1 -112 38 -186 78 -158 214 -230 348 -183 78 28
140 91 166 169 9 28 10 24 26 -50 69 -320 74 -689 16 -991 -82 -428 -294 -729
-550 -784 -294 -63 -639 244 -840 748 -188 471 -232 1055 -113 1517 90 351
281 600 507 661 68 18 108 18 186 0z m529 -739 c121 -63 170 -282 83 -375
-104 -111 -271 20 -271 212 0 111 47 176 128 177 18 0 45 -6 60 -14z m-2
-4401 c24 -339 27 -1330 6 -1590 -34 -413 -67 -625 -97 -625 -8 0 -15 -8 -15
-17 -1 -36 -17 11 -31 87 -18 97 -18 716 -1 950 75 988 92 1236 98 1359 4 80
10 136 14 125 4 -10 16 -140 26 -289z m-728 -6627 c13 -13 8 -14 -253 -51
-120 -17 -534 -52 -540 -45 -4 3 423 63 675 93 52 7 97 13 101 14 3 0 11 -5
17 -11z"/>
<path d="M2631 11836 c-57 -21 -111 -75 -143 -143 -28 -60 -30 -70 -26 -156
13 -244 173 -406 362 -367 92 19 164 86 195 183 28 83 10 231 -37 323 -72 139
-221 207 -351 160z m177 -145 c18 -12 45 -50 63 -87 122 -248 -114 -444 -246
-203 -22 42 -30 70 -33 130 -5 89 13 140 62 171 40 25 111 20 154 -11z"/>
<path d="M3220 10325 c-148 -18 -322 -52 -385 -76 l-54 -20 16 -35 c12 -25 21
-33 32 -28 93 39 362 84 549 91 l152 6 0 39 0 38 -102 -1 c-57 -1 -150 -7
-208 -14z"/>
<path d="M4298 973 c18 -2 45 -2 60 0 15 2 0 4 -33 4 -33 0 -45 -2 -27 -4z"/>
<path d="M4328 913 c7 -3 16 -2 19 1 4 3 -2 6 -13 5 -11 0 -14 -3 -6 -6z"/>
<path d="M4258 903 c7 -3 16 -2 19 1 4 3 -2 6 -13 5 -11 0 -14 -3 -6 -6z"/>
<path d="M4208 893 c6 -2 18 -2 25 0 6 3 1 5 -13 5 -14 0 -19 -2 -12 -5z"/>
<path d="M4038 603 c6 -2 18 -2 25 0 6 3 1 5 -13 5 -14 0 -19 -2 -12 -5z"/>
<path d="M3913 593 c15 -2 39 -2 55 0 15 2 2 4 -28 4 -30 0 -43 -2 -27 -4z"/>
<path d="M3813 373 c9 -2 23 -2 30 0 6 3 -1 5 -18 5 -16 0 -22 -2 -12 -5z"/>
</g>
</svg>
